HIERARCHY
ROOT Hips
{
  OFFSET 0.0000 0.0000 0.0000
  CHANNELS 6 Xposition Yposition Zposition Zrotation Xrotation Yrotation
  JOINT LeftHip
  {
    OFFSET 3.7500 0.0000 0.0000
    CHANNELS 3 Zrotation Xrotation Yrotation
    JOINT LeftKnee
    {
      OFFSET -0.0000 -15.5000 0.0000
      CHANNELS 3 Zrotation Xrotation Yrotation
      JOINT LeftAnkle
      {
        OFFSET 0.0000 -15.5000 0.0000
        CHANNELS 3 Zrotation Xrotation Yrotation
        End Site
        {
          OFFSET 0.0000 -2.5296 0.0000
        }
      }
    }
  }
  JOINT RightHip
  {
    OFFSET -3.7500 0.0000 -0.0000
    CHANNELS 3 Zrotation Xrotation Yrotation
    JOINT RightKnee
    {
      OFFSET 0.0000 -15.5000 0.0000
      CHANNELS 3 Zrotation Xrotation Yrotation
      JOINT RightAnkle
      {
        OFFSET 0.0000 -15.5000 0.0000
        CHANNELS 3 Zrotation Xrotation Yrotation
        End Site
        {
          OFFSET 0.0000 -2.5296 0.0000
        }
      }
    }
  }
  JOINT Chest
  {
    OFFSET 0.0000 4.5700 -0.0000
    CHANNELS 3 Zrotation Xrotation Yrotation
    JOINT Chest2
    {
      OFFSET 0.0000 8.1184 0.0000
      CHANNELS 3 Zrotation Xrotation Yrotation
      JOINT LeftCollar
      {
        OFFSET 1.5000 9.7058 0.5000
        CHANNELS 3 Zrotation Xrotation Yrotation
        JOINT LeftShoulder
        {
          OFFSET 5.2500 0.0000 0.0000
          CHANNELS 3 Zrotation Xrotation Yrotation
          JOINT LeftElbow
          {
            OFFSET 0.0000 -11.0000 0.0000
            CHANNELS 3 Zrotation Xrotation Yrotation
            JOINT LeftWrist
            {
              OFFSET 0.0000 -9.8200 0.0000
              CHANNELS 3 Zrotation Xrotation Yrotation
              End Site
              {
                OFFSET 0.0000 -7.0000 0.0000
              }
            }
          }
        }
      }
      JOINT RightCollar
      {
        OFFSET -1.5000 9.7058 0.5000
        CHANNELS 3 Zrotation Xrotation Yrotation
        JOINT RightShoulder
        {
          OFFSET -5.2500 -0.0000 0.0000
          CHANNELS 3 Zrotation Xrotation Yrotation
          JOINT RightElbow
          {
            OFFSET -0.0000 -11.0000 0.0000
            CHANNELS 3 Zrotation Xrotation Yrotation
            JOINT RightWrist
            {
              OFFSET 0.0000 -9.8200 -0.0000
              CHANNELS 3 Zrotation Xrotation Yrotation
              End Site
              {
                OFFSET -0.0000 -7.0000 0.0000
              }
            }
          }
        }
      }
      JOINT Neck
      {
        OFFSET 0.0000 9.5000 0.0000
        CHANNELS 3 Zrotation Xrotation Yrotation
        JOINT Head
        {
          OFFSET 0.0000 5.2180 0.0000
          CHANNELS 3 Zrotation Xrotation Yrotation
          End Site
          {
            OFFSET 0.0000 4.1400 0.0000
          }
        }
      }
    }
  }
}
MOTION
Frames:	27
Frame Time:	0.033333
1.4738 34.6025 -34.9252 1.09 0.22 -5.27 6.45 -25.10 10.72 -8.60 66.93 2.24 -4.85 -1.87 -0.13 2.30 -10.44 1.28 -3.11 21.25 -5.99 -4.12 -13.70 -0.43 1.04 -3.56 -0.17 -0.45 12.45 -0.00 -27.66 2.98 -0.21 42.29 -4.51 0.88 4.61 -74.47 3.62 -12.07 0.63 50.00 22.17 0.81 -4.26 -57.42 -30.75 59.02 -117.34 -75.39 -116.86 -14.61 34.52 -35.04 0.82 19.92 -1.40 -0.37 -38.56 -3.66 
1.4160 34.7436 -33.6042 1.41 0.43 -5.78 6.01 -27.78 10.12 -8.70 59.77 3.20 -4.97 -3.05 -0.18 1.97 -7.78 0.89 -3.42 19.97 -5.46 -3.53 -14.48 -0.47 1.27 -3.96 0.84 -1.18 12.82 1.08 -27.79 2.91 -0.04 42.50 -4.27 1.21 5.01 -74.83 4.00 -12.03 0.43 49.70 21.65 0.87 -4.07 -56.69 -31.16 59.17 -116.90 -75.60 -116.39 -15.43 35.16 -35.22 0.10 19.73 -1.51 -0.27 -37.89 -4.55 
1.3640 34.8022 -32.2806 1.53 0.74 -6.56 5.69 -29.24 9.19 -7.99 50.26 4.68 -5.25 -4.11 -0.22 1.75 -5.29 0.57 -3.66 18.93 -4.54 -3.16 -15.47 -0.50 1.70 -4.45 1.81 -2.03 13.24 2.16 -27.96 2.82 0.20 42.76 -3.96 1.66 5.53 -75.23 4.51 -12.02 0.12 49.34 21.31 0.94 -3.85 -56.08 -31.75 59.32 -116.27 -75.86 -115.73 -16.36 35.55 -35.99 -0.47 19.78 -1.53 0.02 -37.75 -5.05 
1.3189 34.7598 -30.9518 1.47 1.16 -7.47 5.36 -29.49 7.83 -6.46 38.66 6.56 -5.19 -4.42 -0.22 1.65 -3.04 0.32 -3.90 18.23 -3.30 -2.81 -16.82 -0.54 2.29 -4.89 2.69 -3.01 13.37 3.17 -28.07 2.74 0.38 42.94 -3.31 2.43 6.32 -75.85 5.28 -12.29 0.01 49.75 21.15 1.02 -3.64 -55.49 -32.40 59.82 -115.20 -76.11 -114.61 -17.00 36.05 -37.28 -0.72 19.94 -1.48 0.46 -37.63 -5.04 
1.2711 34.5640 -29.5999 1.10 1.57 -8.39 5.02 -28.36 6.00 -4.09 25.14 8.17 -4.45 -3.68 -0.15 1.92 -1.03 0.13 -4.33 18.26 -2.23 -2.28 -18.85 -0.58 3.03 -5.26 3.50 -3.86 13.53 4.11 -28.06 2.66 0.55 42.87 -2.61 3.34 7.10 -76.75 6.04 -12.63 0.26 49.94 20.94 1.05 -3.55 -54.92 -33.03 60.35 -114.93 -76.20 -114.33 -17.36 35.92 -38.04 -0.78 19.99 -1.47 0.82 -37.43 -5.04 
1.2142 34.1522 -28.1844 0.24 1.93 -9.17 5.45 -27.16 4.29 -1.66 12.69 9.86 -4.49 -3.33 -0.14 2.71 0.83 -0.28 -5.06 19.25 -1.30 -1.56 -21.72 -0.57 4.08 -5.74 4.12 -4.42 13.90 4.85 -28.19 2.60 0.70 42.79 -1.75 4.37 8.40 -78.47 7.33 -12.84 1.17 49.63 20.59 1.09 -3.39 -54.64 -33.63 60.38 -117.21 -76.07 -116.66 -17.41 36.45 -38.38 -1.06 20.14 -1.40 1.45 -37.62 -4.96 
1.1670 33.6480 -26.7199 -0.94 2.50 -10.04 7.12 -27.78 3.29 0.11 5.16 11.11 -4.62 -4.53 -0.19 3.61 2.81 -0.77 -5.73 20.07 -0.09 -0.69 -24.66 -0.40 5.50 -6.36 4.77 -4.98 14.21 5.65 -28.31 2.54 0.84 42.65 -0.97 5.12 9.83 -80.16 8.75 -12.81 2.12 50.50 20.34 1.13 -3.26 -54.47 -33.91 60.32 -119.91 -75.79 -119.42 -18.23 37.59 -36.98 -1.25 20.25 -1.38 1.96 -37.77 -4.99 
1.1621 33.1981 -25.2292 -1.84 3.37 -11.16 9.11 -29.47 3.10 1.16 1.70 11.64 -4.98 -5.75 -0.19 3.90 4.63 -1.15 -6.19 20.47 1.76 0.40 -26.97 -0.10 6.72 -7.15 5.59 -5.54 14.28 6.52 -28.54 2.47 1.02 42.78 -0.56 5.37 10.44 -80.86 9.37 -12.67 2.36 51.33 20.16 1.19 -3.09 -54.24 -33.80 60.58 -120.89 -75.58 -120.43 -19.32 37.99 -35.84 -1.46 20.19 -1.41 2.31 -37.45 -5.23 
1.2073 32.7971 -23.7044 -2.12 4.23 -12.42 10.59 -30.97 3.91 1.27 1.38 11.20 -5.04 -6.40 -0.21 3.39 6.02 -1.50 -6.84 21.42 4.48 1.31 -28.56 0.15 7.25 -7.80 6.49 -6.09 14.13 7.37 -28.78 2.42 1.17 42.89 -0.52 5.64 10.63 -80.91 9.56 -12.94 2.44 50.66 20.20 1.23 -2.99 -54.05 -33.50 60.97 -120.92 -75.43 -120.47 -20.01 37.57 -35.80 -1.64 20.09 -1.44 2.83 -37.21 -5.40 
1.2990 32.5350 -22.0978 -1.78 4.53 -13.71 10.97 -31.49 4.89 0.86 3.63 9.66 -4.32 -4.85 -0.14 2.00 7.50 -2.04 -7.62 22.81 7.16 3.48 -29.26 0.66 6.78 -7.93 7.25 -6.43 13.87 8.04 -28.80 2.39 1.23 42.72 -0.75 5.84 9.77 -80.13 8.70 -12.97 1.89 50.44 20.32 1.22 -3.02 -53.55 -33.08 61.51 -119.08 -75.57 -118.60 -20.08 37.18 -35.97 -1.77 19.81 -1.38 3.57 -37.01 -5.23 
1.4361 32.4673 -20.3664 -0.93 4.27 -14.73 10.34 -31.83 5.52 0.03 8.00 7.54 -4.25 -0.89 -0.01 -0.22 9.32 -2.70 -8.32 24.06 9.91 6.33 -28.21 1.17 5.23 -7.77 7.63 -6.31 13.65 8.26 -29.00 2.40 1.24 42.86 -0.99 5.74 8.36 -78.69 7.29 -12.64 0.60 50.72 20.57 1.19 -3.13 -53.02 -32.45 62.18 -115.31 -75.94 -114.74 -20.21 36.12 -35.54 -1.67 19.41 -1.27 4.18 -36.86 -4.71 
1.6020 32.5159 -18.5474 -0.04 3.87 -14.79 9.34 -32.73 6.04 -1.39 14.20 5.01 -4.46 1.16 0.03 -2.38 10.57 -3.31 -8.87 26.39 11.95 8.96 -25.11 1.39 3.32 -7.67 7.34 -5.90 13.62 7.80 -29.38 2.50 1.08 43.12 -1.04 5.88 7.33 -77.41 6.28 -12.72 -0.63 50.36 20.94 1.15 -3.27 -52.79 -31.80 62.66 -112.72 -76.09 -112.10 -20.10 35.01 -35.27 -1.59 19.07 -1.10 4.89 -36.91 -3.99 
1.7763 32.6479 -16.6611 0.52 3.15 -14.00 7.81 -32.80 5.93 -2.47 20.25 3.38 -3.04 0.90 -0.08 -3.89 9.78 -4.09 -9.88 32.68 13.14 10.56 -19.14 1.10 1.84 -7.35 6.48 -5.74 13.78 6.88 -29.33 2.64 0.79 42.97 -1.09 6.02 6.66 -76.30 5.61 -13.14 -1.27 49.70 21.26 1.09 -3.48 -52.54 -31.10 62.89 -111.49 -76.12 -110.85 -19.30 34.34 -35.12 -1.25 18.86 -0.96 5.29 -36.81 -3.24 
1.9529 32.8177 -14.7745 0.84 2.10 -13.32 6.13 -31.37 5.44 -3.17 24.91 2.07 -0.13 -1.09 -0.22 -5.07 6.06 -4.96 -11.26 43.04 12.72 7.82 -8.76 0.13 0.62 -6.63 5.52 -5.45 13.74 5.87 -29.06 2.79 0.43 42.75 -1.16 5.75 6.11 -75.31 5.08 -13.26 -2.02 49.31 21.46 1.05 -3.60 -52.53 -30.44 63.11 -111.09 -75.95 -110.46 -18.48 33.87 -34.77 -0.66 18.84 -0.80 5.17 -36.39 -2.29 
2.1210 32.9804 -12.9793 1.18 1.10 -13.27 4.75 -29.10 5.15 -3.90 28.24 1.59 2.63 -4.37 -0.20 -6.16 1.07 -5.29 -12.50 53.05 10.55 2.23 2.19 -0.19 -0.64 -5.81 4.73 -4.97 13.42 4.97 -28.67 2.90 0.14 42.54 -1.30 5.20 5.83 -74.87 4.80 -13.10 -2.49 48.83 21.69 0.97 -3.83 -52.87 -30.19 63.25 -111.50 -75.73 -110.89 -18.02 33.54 -33.62 0.03 18.90 -0.61 4.93 -35.84 -1.23 
2.2279 33.1518 -11.3047 1.47 0.43 -13.66 3.82 -26.20 5.20 -4.57 29.82 1.46 5.29 -7.56 -0.03 -6.72 -4.64 -5.08 -15.51 62.14 10.58 0.79 3.81 -0.03 -1.96 -5.28 4.02 -4.15 13.07 4.09 -28.35 2.90 0.08 42.52 -1.78 4.46 5.61 -74.71 4.58 -12.89 -2.41 48.72 21.87 0.88 -4.07 -53.17 -30.17 63.07 -112.27 -75.61 -111.68 -17.25 33.25 -32.95 0.61 18.77 -0.35 4.89 -35.11 -0.01 
2.2794 33.3821 -9.7178 1.51 -0.01 -14.00 3.04 -22.88 5.13 -4.87 29.86 1.56 6.80 -9.90 0.18 -6.59 -10.77 -4.71 -19.34 69.30 13.20 1.23 0.69 0.06 -2.73 -4.88 3.24 -3.64 12.70 3.21 -28.08 2.88 0.09 42.92 -2.52 3.57 5.36 -74.55 4.34 -12.54 -1.98 49.29 22.19 0.86 -4.14 -53.32 -29.83 62.77 -112.77 -75.50 -112.20 -16.24 32.72 -32.95 1.13 18.74 0.01 5.20 -34.75 1.52 
2.2889 33.6788 -8.1651 1.20 -0.34 -14.07 2.10 -19.03 4.50 -4.45 28.47 1.89 7.56 -11.36 0.35 -5.84 -16.48 -4.37 -20.73 72.98 15.32 1.85 -0.92 0.14 -2.87 -4.59 2.37 -3.26 12.48 2.32 -27.92 2.87 0.08 43.46 -3.46 2.45 5.03 -74.13 4.02 -12.28 -1.62 49.99 22.50 0.83 -4.23 -53.34 -29.01 62.28 -113.52 -75.34 -112.97 -15.01 32.12 -33.07 1.63 18.76 0.26 5.27 -34.39 2.68 
2.2913 33.9831 -6.6650 0.72 -0.48 -13.81 0.86 -14.86 3.31 -3.25 25.81 2.25 8.56 -11.88 0.53 -4.79 -21.72 -4.05 -17.88 73.48 13.89 3.18 -2.29 0.17 -2.55 -4.30 1.38 -3.07 12.18 1.37 -27.57 2.86 0.03 43.68 -4.43 1.25 4.56 -73.56 3.57 -12.07 -1.52 50.47 22.76 0.77 -4.42 -53.21 -27.85 61.45 -114.72 -75.20 -114.22 -13.40 31.62 -33.12 2.26 18.72 0.36 4.91 -33.80 3.46 
2.2662 34.2548 -5.2158 0.06 -0.62 -13.30 -0.11 -10.64 2.26 -1.95 22.90 2.53 9.07 -12.12 0.65 -3.55 -25.88 -3.64 -11.96 70.70 9.26 4.71 -4.42 0.19 -2.16 -3.84 0.30 -2.57 11.85 0.31 -27.23 2.87 -0.04 43.66 -5.43 0.00 4.18 -73.09 3.20 -11.99 -1.18 50.47 22.87 0.71 -4.56 -53.32 -26.63 60.52 -116.57 -74.88 -116.12 -12.10 31.07 -32.94 2.84 18.63 0.50 4.48 -33.33 4.30 
2.2030 34.4791 -3.8189 -0.56 -0.54 -12.86 -0.58 -6.80 1.67 -1.05 20.12 2.58 8.87 -12.46 0.72 -2.18 -29.07 -2.80 -6.57 64.54 4.78 5.89 -6.16 0.20 -2.33 -3.49 -0.71 -1.10 11.42 -0.83 -27.20 2.91 -0.15 43.46 -6.33 -1.13 3.89 -72.57 2.93 -12.38 -0.85 48.98 22.93 0.68 -4.64 -54.13 -25.49 59.67 -118.80 -74.33 -118.45 -10.91 30.53 -33.12 3.12 18.80 0.70 4.11 -33.06 5.10 
2.1159 34.6493 -2.4500 -0.93 -0.36 -12.63 -0.97 -3.13 1.31 -0.45 17.30 2.79 8.36 -12.49 0.73 -0.86 -31.01 -1.39 -3.47 55.13 1.75 7.27 -6.66 0.10 -2.64 -3.38 -1.56 0.17 11.24 -1.82 -27.00 2.89 -0.13 43.09 -7.44 -2.22 3.51 -71.84 2.56 -12.67 -0.80 47.42 23.02 0.66 -4.71 -54.87 -24.65 58.88 -120.12 -73.96 -119.83 -10.15 29.88 -32.99 3.50 18.91 0.91 3.77 -32.88 6.01 
2.0087 34.7222 -1.0745 -1.05 -0.22 -12.09 -1.47 0.38 0.97 0.07 14.78 2.86 7.61 -12.68 0.73 -0.07 -31.04 -0.06 -1.85 42.43 -0.95 7.80 -6.39 -0.08 -3.15 -3.41 -2.46 1.35 11.33 -2.86 -26.73 2.88 -0.16 42.72 -8.77 -3.42 2.83 -70.92 1.91 -12.24 -0.69 47.99 23.12 0.60 -4.87 -55.55 -24.08 58.07 -121.17 -73.68 -120.93 -8.92 29.74 -33.18 3.82 18.79 1.09 3.53 -32.58 6.78 
1.8897 34.5990 0.3084 -0.79 0.06 -10.99 -2.15 3.27 0.71 0.56 13.07 2.44 7.48 -13.51 0.83 -0.30 -29.44 0.75 -1.07 26.67 -3.90 7.40 -4.86 -0.31 -3.63 -3.69 -3.51 1.86 11.35 -3.98 -26.32 2.91 -0.29 42.60 -9.82 -4.59 2.14 -70.50 1.27 -11.95 -0.19 48.56 23.42 0.52 -5.07 -56.21 -23.50 57.22 -122.97 -73.31 -122.80 -7.87 29.65 -33.13 4.31 18.99 1.16 3.35 -32.58 7.41 
1.7490 34.1638 1.7397 0.24 0.34 -9.60 -3.43 5.47 0.65 1.13 13.00 1.52 7.72 -15.53 0.95 -1.89 -28.18 0.97 -0.82 12.08 -7.00 6.65 -3.62 -0.25 -5.03 -4.22 -4.56 2.52 11.58 -5.18 -26.04 2.99 -0.53 42.93 -10.47 -5.60 1.57 -71.66 0.72 -11.92 1.46 49.24 23.53 0.47 -5.21 -56.96 -22.73 56.07 -128.06 -72.17 -128.09 -7.91 30.61 -31.48 4.84 19.21 1.17 2.90 -32.64 7.87 
1.6002 33.5527 3.2417 1.78 0.46 -7.96 -5.10 7.69 0.76 1.79 13.66 0.60 7.44 -18.19 0.85 -4.47 -29.69 0.47 -0.75 4.66 -9.55 5.90 -5.88 0.30 -7.04 -4.71 -5.60 3.26 12.02 -6.43 -25.93 3.09 -0.79 43.26 -10.97 -6.23 1.18 -73.52 0.33 -12.16 3.56 50.21 23.64 0.36 -5.47 -57.87 -22.19 54.85 -133.40 -70.70 -133.66 -7.58 31.96 -30.65 5.34 19.31 1.13 2.45 -32.80 8.13 
1.4404 33.0119 4.7651 3.07 0.61 -6.42 -6.15 10.33 1.01 1.99 13.64 -0.16 6.91 -20.44 0.66 -6.97 -32.36 -0.40 -0.82 2.13 -10.73 7.64 -8.70 0.78 -8.37 -5.17 -6.55 3.36 12.44 -7.48 -25.79 3.20 -1.06 43.33 -11.68 -6.64 0.97 -74.06 0.12 -12.63 4.39 50.26 23.88 0.24 -5.76 -58.50 -21.87 54.17 -135.74 -69.91 -136.12 -7.18 32.44 -30.73 5.87 19.43 1.06 2.25 -32.93 8.37 
